<?xml version="1.0" encoding="UTF-8" standalone="no"?>
<!DOCTYPE svg PUBLIC "-//W3C//DTD SVG 1.1//EN" "http://www.w3.org/Graphics/SVG/1.1/DTD/svg11.dtd">
<svg xmlns="http://www.w3.org/2000/svg" version="1.1" viewBox="0 0 612 615">
<path fill="rgb(255,255,255)" fill-opacity="1.000" d="M 0.00 0.00 Q 306.00 0.00 612.00 0.00 Q 612.00 307.50 612.00 615.00 Q 306.00 615.00 0.00 615.00 Q 0.00 307.50 0.00 0.00 Z M 297.40 256.38 Q 304.35 260.42 311.64 264.63 A 1.32 1.32 45.0 0 0 312.96 264.63 L 352.01 241.94 A 0.89 0.86 75.3 0 0 352.44 241.18 L 352.56 196.01 A 2.71 2.69 15.4 0 0 351.21 193.66 L 313.30 171.84 A 1.81 1.81 45.1 0 0 311.48 171.84 L 272.81 194.07 A 1.11 1.10 -15.0 0 0 272.25 195.03 L 272.25 241.09 A 1.72 1.71 -75.5 0 0 273.13 242.59 Q 285.41 249.43 297.40 256.38 Z M 353.49 341.56 L 398.79 315.38 A 0.92 0.89 -44.8 0 1 399.70 315.37 L 424.22 329.86 Q 426.07 330.95 426.02 333.22 Q 425.46 358.34 425.93 381.94 A 2.57 2.46 75.0 0 1 424.70 384.18 L 393.61 402.20 A 2.63 2.50 -15.9 0 0 392.31 404.40 L 392.25 449.71 A 0.90 0.88 15.3 0 0 392.70 450.48 L 432.06 473.00 A 1.44 1.40 44.3 0 0 433.48 473.00 L 471.97 450.57 A 2.42 2.35 72.1 0 0 473.12 448.24 Q 472.77 445.04 472.77 441.25 Q 472.75 422.87 472.75 403.59 A 1.04 1.04 15.0 0 0 472.23 402.69 L 440.99 384.50 A 2.54 2.49 -75.2 0 1 439.75 382.32 L 439.81 331.07 A 0.91 0.86 75.7 0 1 440.24 330.30 L 472.02 311.87 A 1.49 1.41 -16.0 0 0 472.75 310.63 L 472.75 265.03 A 1.65 1.62 -75.2 0 0 471.94 263.61 L 433.22 241.23 A 0.90 0.90 44.9 0 0 432.32 241.23 L 393.38 263.68 A 2.32 2.25 75.5 0 0 392.25 265.67 L 392.25 302.47 A 0.92 0.91 75.6 0 1 391.78 303.27 L 346.90 329.19 A 1.67 1.67 -90.0 0 1 345.22 329.19 L 313.58 310.89 A 2.53 2.51 -44.8 0 0 311.07 310.89 L 279.01 329.38 A 0.97 0.94 44.8 0 1 278.04 329.37 L 233.36 303.06 A 0.87 0.86 15.0 0 1 232.92 302.31 L 232.69 265.80 A 2.32 2.14 -71.6 0 0 231.93 264.11 Q 229.90 262.38 227.15 260.79 Q 210.67 251.33 193.17 241.12 A 1.82 1.81 -44.1 0 0 191.39 241.10 Q 173.53 250.89 155.75 261.50 Q 152.90 263.20 151.62 264.68 A 1.42 1.24 68.4 0 0 151.31 265.56 L 151.25 310.31 A 1.17 1.16 15.5 0 0 151.82 311.31 L 183.38 329.87 A 2.66 2.64 15.3 0 1 184.69 332.15 L 184.75 382.18 A 2.14 2.14 74.9 0 1 183.69 384.03 L 152.04 402.82 A 1.65 1.62 -15.9 0 0 151.25 404.21 L 151.25 448.41 A 2.63 2.55 -75.3 0 0 152.52 450.66 L 191.56 473.52 A 0.95 0.94 -44.5 0 0 192.53 473.52 L 231.54 450.63 A 2.35 2.34 74.8 0 0 232.69 448.61 L 232.75 403.77 A 1.60 1.56 15.2 0 0 231.94 402.40 L 200.13 384.14 A 2.32 2.25 -75.5 0 1 199.00 382.15 L 199.00 332.08 A 2.17 2.07 75.7 0 1 200.04 330.23 L 224.33 316.16 A 2.27 2.24 44.6 0 1 226.57 316.16 L 270.50 341.16 Q 272.24 342.15 272.26 344.27 L 272.49 380.24 A 0.92 0.89 16.3 0 0 272.93 381.01 Q 297.06 395.82 302.94 398.81 Q 306.05 400.39 305.84 403.51 Q 305.75 404.95 305.75 405.00 Q 305.61 428.87 304.77 452.32 A 1.85 1.81 76.5 0 1 303.86 453.84 L 273.05 471.57 A 1.73 1.71 -10.5 0 0 272.20 472.79 Q 271.83 475.13 271.99 477.61 Q 272.26 482.07 272.26 482.41 Q 272.35 500.91 272.07 519.18 A 1.49 1.48 15.6 0 0 272.82 520.50 L 310.82 542.25 A 1.63 1.44 54.1 0 0 311.75 542.46 Q 315.26 542.12 318.06 539.81 Q 335.18 530.24 352.07 520.26 A 0.91 0.89 74.7 0 0 352.50 519.49 L 352.44 473.06 A 1.49 1.47 15.2 0 0 351.69 471.78 Q 338.26 464.08 326.03 456.95 Q 325.96 456.91 323.79 455.78 Q 319.83 453.74 319.05 449.76 Q 319.00 449.48 319.00 441.71 Q 319.00 421.98 319.00 402.23 A 2.90 2.90 -19.7 0 1 320.06 399.99 Q 322.69 397.85 325.24 396.44 Q 338.69 389.03 351.83 381.05 A 1.39 1.37 74.8 0 0 352.50 379.86 Q 352.50 363.38 352.51 347.00 Q 352.51 344.62 352.96 342.29 A 1.12 1.10 -9.6 0 1 353.49 341.56 Z"/>
<path fill="rgb(151,35,67)" fill-opacity="1.000" d="M 313.30 171.84 L 351.21 193.66 A 2.71 2.69 15.4 0 1 352.56 196.01 L 352.44 241.18 A 0.89 0.86 75.3 0 1 352.01 241.94 L 312.96 264.63 A 1.32 1.32 44.2 0 1 311.64 264.63 Q 304.35 260.42 297.40 256.38 Q 285.41 249.43 273.13 242.59 A 1.72 1.71 -75.5 0 1 272.25 241.09 L 272.25 195.03 A 1.11 1.10 -15.0 0 1 272.81 194.07 L 311.48 171.84 A 1.81 1.81 44.9 0 1 313.30 171.84 Z"/>
<path fill="rgb(151,35,67)" fill-opacity="1.000" d="M 193.17 241.12 Q 210.67 251.33 227.15 260.79 Q 229.90 262.38 231.93 264.11 A 2.32 2.14 -71.6 0 1 232.69 265.80 L 232.92 302.31 A 0.87 0.86 15.0 0 0 233.36 303.06 L 278.04 329.37 A 0.97 0.94 44.8 0 0 279.01 329.38 L 311.07 310.89 A 2.53 2.51 -44.8 0 1 313.58 310.89 L 345.22 329.19 A 1.67 1.67 0.0 0 0 346.90 329.19 L 391.78 303.27 A 0.92 0.91 75.6 0 0 392.25 302.47 L 392.25 265.67 A 2.32 2.25 75.5 0 1 393.38 263.68 L 432.32 241.23 A 0.90 0.90 45.2 0 1 433.22 241.23 L 471.94 263.61 A 1.65 1.62 -75.2 0 1 472.75 265.03 L 472.75 310.63 A 1.49 1.41 -16.0 0 1 472.02 311.87 L 440.24 330.30 A 0.91 0.86 75.7 0 0 439.81 331.07 L 439.75 382.32 A 2.54 2.49 -75.2 0 0 440.99 384.50 L 472.23 402.69 A 1.04 1.04 15.0 0 1 472.75 403.59 Q 472.75 422.87 472.77 441.25 Q 472.77 445.04 473.12 448.24 A 2.42 2.35 72.1 0 1 471.97 450.57 L 433.48 473.00 A 1.44 1.40 44.3 0 1 432.06 473.00 L 392.70 450.48 A 0.90 0.88 15.3 0 1 392.25 449.71 L 392.31 404.40 A 2.63 2.50 -15.9 0 1 393.61 402.20 L 424.70 384.18 A 2.57 2.46 75.0 0 0 425.93 381.94 Q 425.46 358.34 426.02 333.22 Q 426.07 330.95 424.22 329.86 L 399.70 315.37 A 0.92 0.89 -44.8 0 0 398.79 315.38 L 353.49 341.56 A 1.12 1.10 -9.6 0 0 352.96 342.29 Q 352.51 344.62 352.51 347.00 Q 352.50 363.38 352.50 379.86 A 1.39 1.37 74.8 0 1 351.83 381.05 Q 338.69 389.03 325.24 396.44 Q 322.69 397.85 320.06 399.99 A 2.90 2.90 -19.7 0 0 319.00 402.23 Q 319.00 421.98 319.00 441.71 Q 319.00 449.48 319.05 449.76 Q 319.83 453.74 323.79 455.78 Q 325.96 456.91 326.03 456.95 Q 338.26 464.08 351.69 471.78 A 1.49 1.47 15.2 0 1 352.44 473.06 L 352.50 519.49 A 0.91 0.89 74.7 0 1 352.07 520.26 Q 335.18 530.24 318.06 539.81 Q 315.26 542.12 311.75 542.46 A 1.63 1.44 54.1 0 1 310.82 542.25 L 272.82 520.50 A 1.49 1.48 15.6 0 1 272.07 519.18 Q 272.35 500.91 272.26 482.41 Q 272.26 482.07 271.99 477.61 Q 271.83 475.13 272.20 472.79 A 1.73 1.71 -10.5 0 1 273.05 471.57 L 303.86 453.84 A 1.85 1.81 76.5 0 0 304.77 452.32 Q 305.61 428.87 305.75 405.00 Q 305.75 404.95 305.84 403.51 Q 306.05 400.39 302.94 398.81 Q 297.06 395.82 272.93 381.01 A 0.92 0.89 16.3 0 1 272.49 380.24 L 272.26 344.27 Q 272.24 342.15 270.50 341.16 L 226.57 316.16 A 2.27 2.24 44.6 0 0 224.33 316.16 L 200.04 330.23 A 2.17 2.07 75.7 0 0 199.00 332.08 L 199.00 382.15 A 2.32 2.25 -75.5 0 0 200.13 384.14 L 231.94 402.40 A 1.60 1.56 15.2 0 1 232.75 403.77 L 232.69 448.61 A 2.35 2.34 74.8 0 1 231.54 450.63 L 192.53 473.52 A 0.95 0.94 -44.5 0 1 191.56 473.52 L 152.52 450.66 A 2.63 2.55 -75.3 0 1 151.25 448.41 L 151.25 404.21 A 1.65 1.62 -15.9 0 1 152.04 402.82 L 183.69 384.03 A 2.14 2.14 74.9 0 0 184.75 382.18 L 184.69 332.15 A 2.66 2.64 15.3 0 0 183.38 329.87 L 151.82 311.31 A 1.17 1.16 15.5 0 1 151.25 310.31 L 151.31 265.56 A 1.42 1.24 68.4 0 1 151.62 264.68 Q 152.90 263.20 155.75 261.50 Q 173.53 250.89 191.39 241.10 A 1.82 1.81 -44.1 0 1 193.17 241.12 Z"/>
</svg>